# xmcd
#
# Track frame offsets: 
#        150
#        16995
#        47662
#        64130
#        88179
#        100473
#        114304
#        129678
#        150322
#        170006
#        187172
#        203328
#        221652
#        244880
#        260537
#        274681
#        297154
#        316909
#
# Disc length: 4433 seconds
#
# Revision: 0
# Processed by: cddbd v1.5.2PL0 Copyright (c) Steve Scherf et al.
# Submitted via: ExactAudioCopyFreeDBPlugin 1.0
#
DISCID=07114f12
DTITLE=Le Freak - A Trip To 2000 And 1
DYEAR=2000
DGENRE=Club
TTITLE0=Ultra Nate - Desire [Klubbheads Vocal Mix]
TTITLE1=Klubbheads - Big Bass Bomb
TTITLE2=Afro Medusa - Pasilda [Klubbheas Mix]
TTITLE3=Darude - Sandstorm
TTITLE4=Gabriel Crockett - Your Latest Trick
TTITLE5=Klubbheads - Turn Up The Bass
TTITLE6=The Phunky Tec Brothers - Phat And Phunky
TTITLE7=Wrap Brothers Vs Aquagen - Phatt Bass
TTITLE8=Storm - Time To Burn
TTITLE9=Bassline Pumpers - The Frontdoor
TTITLE10=Tha Bomb - Tha Bomb
TTITLE11=Balloon - Pussylovers
TTITLE12=DJ Jean - Love Come Home [Plastic Remix]
TTITLE13=DJ BoozyWoozy - R U Ready
TTITLE14=3 Dubbs In A Sleeve - Tease
TTITLE15=Liquid Feat Silvy - Turn The Tide
TTITLE16=Milk Inc - Walk On Water
TTITLE17=Spiller - Groove Jet [If This Aint Love]
EXTD=
EXTT0=
EXTT1=
EXTT2=
EXTT3=
EXTT4=
EXTT5=
EXTT6=
EXTT7=
EXTT8=
EXTT9=
EXTT10=
EXTT11=
EXTT12=
EXTT13=
EXTT14=
EXTT15=
EXTT16=
EXTT17=
PLAYORDER=
